<?xml version="1.0" encoding="iso-8859-1"?>
<svg xmlns="http://www.w3.org/2000/svg" xmlns:xlink="http://www.w3.org/1999/xlink" x="0px" y="0px"
     viewBox="0 0 512 512" style="enable-background:new 0 0 512 512;" fill="white" xml:space="preserve">
<g>
	<g>
		<path d="M449.977,0.008c-22.825,0.437-41.193,19.076-41.193,42.005v136.781h-0.452c-2.974-20.29-20.446-35.869-41.561-35.869
			s-38.587,15.579-41.561,35.869h-0.904c-2.974-20.29-20.446-35.869-41.561-35.869s-38.587,15.579-41.561,35.869h-0.452V42.843
			c0-23.558-19.279-43.286-42.832-42.835c-22.825,0.437-41.194,19.076-41.194,42.005l0.422,235.059
			c-30.489-30.489-66.219-66.219-66.219-66.219c-16.407-16.407-43.008-16.407-59.415,0c-16.407,16.407-16.407,43.009,0,59.415
			l60.417,60.417c34.993,34.993,67.829,72.164,96.98,112.156c30.373,41.669,79.44,68.836,134.877,69.157
			c92.973,0.537,169.044-76.656,169.044-169.63V42.843C492.809,19.285,473.53-0.443,449.977,0.008z"/>
	</g>
</g>
    <g>
</g>
    <g>
</g>
    <g>
</g>
    <g>
</g>
    <g>
</g>
    <g>
</g>
    <g>
</g>
    <g>
</g>
    <g>
</g>
    <g>
</g>
    <g>
</g>
    <g>
</g>
    <g>
</g>
    <g>
</g>
    <g>
</g>
</svg>
